<svg xmlns="http://www.w3.org/2000/svg" viewBox="0 0 240 240" role="img" aria-label="Math and Science Tutors logo">
  <defs>
    <radialGradient id="bg" cx="50%" cy="40%" r="70%">
      <stop offset="0%" stop-color="#1b2746" />
      <stop offset="100%" stop-color="#0b1120" />
    </radialGradient>
    <linearGradient id="bars" x1="0" x2="1">
      <stop offset="0%" stop-color="#2f80d8" />
      <stop offset="100%" stop-color="#1e4f9d" />
    </linearGradient>
  </defs>
  <circle cx="120" cy="120" r="118" fill="url(#bg)" />
  <g transform="translate(35 52)">
    <g stroke="#8bd449" stroke-width="3" fill="none" opacity="0.95">
      <ellipse cx="46" cy="34" rx="10" ry="18" />
      <ellipse cx="46" cy="34" rx="24" ry="8" transform="rotate(-25 46 34)" />
      <ellipse cx="46" cy="34" rx="24" ry="8" transform="rotate(25 46 34)" />
      <circle cx="46" cy="34" r="3" fill="#8bd449" />
    </g>
    <g fill="url(#bars)">
      <rect x="84" y="38" width="13" height="24" rx="2" />
      <rect x="100" y="30" width="13" height="32" rx="2" />
      <rect x="116" y="21" width="13" height="41" rx="2" />
      <polygon points="128,62 148,48 148,62" />
    </g>
    <text x="118" y="52" font-size="18" fill="#f1f5ff" font-family="Georgia, serif">pi</text>
  </g>
  <text x="120" y="146" text-anchor="middle" font-size="22" fill="#e8ecf7" font-family="Georgia, serif">Math &amp; Science</text>
  <text x="120" y="168" text-anchor="middle" font-size="22" fill="#e8ecf7" font-family="Georgia, serif">Tutors</text>
  <line x1="42" y1="160" x2="82" y2="160" stroke="#8bd449" stroke-width="3" />
  <line x1="158" y1="160" x2="198" y2="160" stroke="#8bd449" stroke-width="3" />
</svg>
